<mxfile host="65bd71144e">
    <diagram id="IzG7a3cqAIBmP9c-uOni" name="Page-1">
        <mxGraphModel dx="575" dy="1139" grid="1" gridSize="10" guides="1" tooltips="1" connect="1" arrows="1" fold="1" page="1" pageScale="1" pageWidth="827" pageHeight="1169" math="0" shadow="0">
            <root>
                <mxCell id="0"/>
                <mxCell id="1" parent="0"/>
                <mxCell id="Wy_21Op2X0B6NZCzpTQm-1" value="User enter search word (3 letters min)" style="rounded=1;whiteSpace=wrap;html=1;fillColor=#1ba1e2;strokeColor=#006EAF;fontStyle=1;fontColor=#ffffff;" parent="1" vertex="1">
                    <mxGeometry x="300" y="80" width="120" height="60" as="geometry"/>
                </mxCell>
                <mxCell id="Wy_21Op2X0B6NZCzpTQm-2" value="init search" style="rhombus;whiteSpace=wrap;html=1;fillColor=#f0a30a;strokeColor=#BD7000;fontStyle=1;fontColor=#000000;" parent="1" vertex="1">
                    <mxGeometry x="320" y="240" width="80" height="80" as="geometry"/>
                </mxCell>
                <mxCell id="Wy_21Op2X0B6NZCzpTQm-3" value="recipes.json" style="ellipse;whiteSpace=wrap;html=1;aspect=fixed;fillColor=#60a917;strokeColor=#2D7600;fontColor=#ffffff;" parent="1" vertex="1">
                    <mxGeometry x="80" y="240" width="80" height="80" as="geometry"/>
                </mxCell>
                <mxCell id="Wy_21Op2X0B6NZCzpTQm-4" value="convert query string toLowerCase" style="rounded=0;whiteSpace=wrap;html=1;fillColor=#f5f5f5;fontColor=#333333;strokeColor=#666666;" parent="1" vertex="1">
                    <mxGeometry x="300" y="360" width="120" height="60" as="geometry"/>
                </mxCell>
                <mxCell id="Wy_21Op2X0B6NZCzpTQm-5" value="object RECIPES" style="shape=hexagon;perimeter=hexagonPerimeter2;whiteSpace=wrap;html=1;fixedSize=1;fillColor=#f0a30a;strokeColor=#BD7000;fontStyle=1;fontColor=#000000;" parent="1" vertex="1">
                    <mxGeometry x="300" y="480" width="120" height="80" as="geometry"/>
                </mxCell>
                <mxCell id="Wy_21Op2X0B6NZCzpTQm-12" value="Iterate RESULT to DOM" style="rounded=1;whiteSpace=wrap;html=1;fillColor=#1ba1e2;fontColor=#ffffff;strokeColor=#006EAF;" parent="1" vertex="1">
                    <mxGeometry x="650" y="730" width="120" height="60" as="geometry"/>
                </mxCell>
                <mxCell id="Wy_21Op2X0B6NZCzpTQm-14" value="&amp;nbsp;getRecipes()&amp;nbsp;" style="endArrow=classic;startArrow=classic;html=1;rounded=0;entryX=0;entryY=0.5;entryDx=0;entryDy=0;exitX=1;exitY=0.5;exitDx=0;exitDy=0;" parent="1" source="Wy_21Op2X0B6NZCzpTQm-3" target="Wy_21Op2X0B6NZCzpTQm-2" edge="1">
                    <mxGeometry width="50" height="50" relative="1" as="geometry">
                        <mxPoint x="200" y="310" as="sourcePoint"/>
                        <mxPoint x="250" y="260" as="targetPoint"/>
                    </mxGeometry>
                </mxCell>
                <mxCell id="Wy_21Op2X0B6NZCzpTQm-15" value="" style="endArrow=classic;html=1;rounded=0;entryX=0.5;entryY=0;entryDx=0;entryDy=0;exitX=0.5;exitY=1;exitDx=0;exitDy=0;" parent="1" source="Wy_21Op2X0B6NZCzpTQm-1" target="Wy_21Op2X0B6NZCzpTQm-2" edge="1">
                    <mxGeometry width="50" height="50" relative="1" as="geometry">
                        <mxPoint x="370" y="220" as="sourcePoint"/>
                        <mxPoint x="420" y="170" as="targetPoint"/>
                    </mxGeometry>
                </mxCell>
                <mxCell id="Wy_21Op2X0B6NZCzpTQm-16" value="" style="endArrow=classic;html=1;rounded=0;exitX=0.5;exitY=1;exitDx=0;exitDy=0;entryX=0.5;entryY=0;entryDx=0;entryDy=0;" parent="1" source="Wy_21Op2X0B6NZCzpTQm-2" target="Wy_21Op2X0B6NZCzpTQm-4" edge="1">
                    <mxGeometry width="50" height="50" relative="1" as="geometry">
                        <mxPoint x="190" y="400" as="sourcePoint"/>
                        <mxPoint x="240" y="350" as="targetPoint"/>
                    </mxGeometry>
                </mxCell>
                <mxCell id="Wy_21Op2X0B6NZCzpTQm-17" value="" style="endArrow=classic;html=1;rounded=0;exitX=0.5;exitY=1;exitDx=0;exitDy=0;" parent="1" source="Wy_21Op2X0B6NZCzpTQm-4" target="Wy_21Op2X0B6NZCzpTQm-5" edge="1">
                    <mxGeometry width="50" height="50" relative="1" as="geometry">
                        <mxPoint x="240" y="500" as="sourcePoint"/>
                        <mxPoint x="290" y="450" as="targetPoint"/>
                    </mxGeometry>
                </mxCell>
                <mxCell id="Wy_21Op2X0B6NZCzpTQm-31" value="&amp;nbsp;display results&amp;nbsp;" style="endArrow=classic;html=1;rounded=0;exitX=0.5;exitY=0;exitDx=0;exitDy=0;entryX=1;entryY=0.5;entryDx=0;entryDy=0;" parent="1" source="Wy_21Op2X0B6NZCzpTQm-12" target="Wy_21Op2X0B6NZCzpTQm-1" edge="1">
                    <mxGeometry x="0.6923" width="50" height="50" relative="1" as="geometry">
                        <mxPoint x="640" y="870" as="sourcePoint"/>
                        <mxPoint x="710" y="450" as="targetPoint"/>
                        <Array as="points">
                            <mxPoint x="710" y="110"/>
                        </Array>
                        <mxPoint as="offset"/>
                    </mxGeometry>
                </mxCell>
                <mxCell id="Wy_21Op2X0B6NZCzpTQm-34" value="&lt;b&gt;object RESULTS&lt;/b&gt;" style="shape=hexagon;perimeter=hexagonPerimeter2;whiteSpace=wrap;html=1;fixedSize=1;fontSize=11;fillColor=#f0a30a;strokeColor=#BD7000;fontColor=#000000;" parent="1" vertex="1">
                    <mxGeometry x="300" y="720" width="120" height="80" as="geometry"/>
                </mxCell>
                <mxCell id="Wy_21Op2X0B6NZCzpTQm-35" value="filter() method" style="endArrow=classic;html=1;rounded=0;fontSize=11;entryX=0.5;entryY=0;entryDx=0;entryDy=0;exitX=0.5;exitY=1;exitDx=0;exitDy=0;" parent="1" source="Wy_21Op2X0B6NZCzpTQm-5" target="Wy_21Op2X0B6NZCzpTQm-34" edge="1">
                    <mxGeometry width="50" height="50" relative="1" as="geometry">
                        <mxPoint x="250" y="680" as="sourcePoint"/>
                        <mxPoint x="300" y="630" as="targetPoint"/>
                    </mxGeometry>
                </mxCell>
                <mxCell id="Wy_21Op2X0B6NZCzpTQm-36" value="" style="endArrow=classic;html=1;rounded=0;fontSize=11;entryX=0;entryY=0.5;entryDx=0;entryDy=0;exitX=1;exitY=0.5;exitDx=0;exitDy=0;" parent="1" source="Wy_21Op2X0B6NZCzpTQm-34" target="Wy_21Op2X0B6NZCzpTQm-12" edge="1">
                    <mxGeometry width="50" height="50" relative="1" as="geometry">
                        <mxPoint x="340" y="720" as="sourcePoint"/>
                        <mxPoint x="390" y="670" as="targetPoint"/>
                    </mxGeometry>
                </mxCell>
            </root>
        </mxGraphModel>
    </diagram>
</mxfile>